# AST/ASF file generated using VICON BodyLanguage
# -----------------------------------------------
:version 1.10
:name VICON
:units
  mass 1.0
  length 0.45
  angle deg
:documentation
   .ast/.asf automatically generated from VICON data using
   VICON BodyBuilder and BodyLanguage model FoxedUp or BRILLIANT.MOD
:root
   order TX TY TZ RX RY RZ
   axis XYZ
   position 0 0 0  
   orientation 0 0 0 
:bonedata
  begin
     id 1 
     name lhipjoint
     direction 0.734343 -0.627749 0.258209 
     length 2.5437 
     axis 0 0 0  XYZ
  end
  begin
     id 2 
     name lfemur
     direction 0.34202 -0.939693 0  
     length 6.7391  
     axis 0 0 20  XYZ
    dof rx ry rz
    limits (-160.0 20.0)
           (-70.0 70.0)
           (-60.0 70.0)
  end
  begin
     id 3 
     name ltibia
     direction 0.34202 -0.939693 0   
     length 7.21536   
     axis 0 0 20   XYZ
    dof rx
    limits (-10.0 170.0)
  end
  begin
     id 4 
     name lfoot
     direction 0.0489572 -0.134509 0.989702   
     length 1.61313   
     axis -90 7.62852e-016 20   XYZ
    dof rx rz
    limits (-45.0 90.0)
           (-70.0 20.0)
  end
  begin
     id 5 
     name ltoes
     direction 1.53451e-011 -4.21692e-011 1   
     length 0.823104   
     axis -90 7.62852e-016 20   XYZ
    dof rx
    limits (-90.0 20.0)
  end
  begin
     id 6 
     name rhipjoint
     direction -0.746398 -0.615468 0.253157   
     length 2.59446  
     axis 0 0 0  XYZ 
  end
  begin
     id 7 
     name rfemur
     direction -0.34202 -0.939693 0   
     length 6.7075   
     axis 0 0 -20   XYZ
    dof rx ry rz
    limits (-160.0 20.0)
           (-70.0 70.0)
           (-70.0 60.0)
  end
  begin
     id 8 
     name rtibia
     direction -0.34202 -0.939693 0   
     length 7.27262   
     axis 0 0 -20   XYZ
    dof rx
    limits (-10.0 170.0)
 end
 begin
     id 9 
     name rfoot
     direction -0.0455203 -0.125066 0.991104   
     length 1.91095  
     axis -90 -7.62852e-016 -20   XYZ
    dof rx rz
    limits (-45.0 90.0)
           (-20.0 70.0)
  end
  begin
     id 10 
     name rtoes
     direction -1.53601e-011 -4.21913e-011 1   
     length 0.969037   
     axis -90 -7.62852e-016 -20   XYZ
    dof rx
    limits (-90.0 20.0)
  end
  begin
     id 11 
     name lowerback
     direction 0.0181546 0.999122 -0.0377542   
     length 1.99916   
     axis 0 0 0   XYZ
    dof rx ry rz
    limits (-20.0 45.0)
           (-30.0 30.0)
           (-30.0 30.0)
  end
  begin
     id 12 
     name upperback
     direction 0.0203486 0.99589 0.0882534   
     length 1.951   
     axis 0 0 0   XYZ
    dof rx ry rz
    limits (-20.0 45.0)
           (-30.0 30.0)
           (-30.0 30.0)
  end
  begin
     id 13 
     name thorax
     direction 0.0131685 0.994241 0.106355   
     length 1.97461   
     axis 0 0 0   XYZ
    dof rx ry rz
    limits (-20.0 45.0)
           (-30.0 30.0)
           (-30.0 30.0)
  end
  begin
     id 14 
     name lowerneck
     direction -0.0281395 0.999325 0.023617   
     length 1.7959   
     axis 0 0 0   XYZ
    dof rx ry rz
    limits (-20.0 45.0)
           (-30.0 30.0)
           (-30.0 30.0)
  end
  begin
     id 15 
     name upperneck
     direction 0.0288721 0.991984 -0.123019   
     length 1.79917   
     axis 0 0 0   XYZ
    dof rx ry rz
    limits (-20.0 45.0)
           (-30.0 30.0)
           (-30.0 30.0)
  end
  begin
     id 16
     name head
     direction 0.0133797 0.998944 -0.0439492  
     length 1.80902  
     axis 0 0 0   XYZ
    dof rx ry rz
    limits (-20.0 45.0)
           (-30.0 30.0)
           (-30.0 30.0)
  end
  begin
     id 17 
     name lclavicle
     direction 0.919195 0.377107 0.113449  
     length 3.17815  
     axis 0 0 0   XYZ
    dof ry rz
    limits (-20.0 10.0)
           (0.0 20.0)
  end
  begin
     id 18 
     name lhumerus
     direction 1 -4.48959e-011 2.13129e-027   
     length 4.84137   
     axis 180 -30 -90   XYZ
    dof rx ry rz
    limits (-60.0 90.0)
           (-90.0 90.0)
           (-90.0 90.0)
  end
  begin
     id 19
     name lradius
     direction 1 -4.48957e-011 -6.30627e-028   
     length 3.2452   
     axis 180 -30 -90   XYZ
    dof rx
    limits (-10.0 170.0)
  end
  begin
     id 20
     name lwrist
     direction 1 -4.4901e-011 9.13299e-027   
     length 1.6226   
     axis -6.84618e-015 90 90   XYZ
    dof ry
    limits (-180.0 0.0)
 end
  begin
     id 21 
     name lhand
     direction 1 -4.48816e-011 1.82293e-026   
     length 0.521221   
     axis -1.16502e-014 90 90   XYZ
    dof rx rz
    limits (-90.0 90.0)
           (-45.0 45.0)
  end
  begin
     id 22 
     name lfingers
     direction 1 -4.49108e-011 3.65687e-026   
     length 0.420221   
     axis -2.33008e-014 90 90   XYZ
    dof rx
    limits (0.0 90.0)
  end
  begin
     id 23
     name lthumb
     direction 0.707107 -6.34943e-011 0.707107   
     length 0.603356   
     axis -90 45 5.69224e-014   XYZ
    dof rx rz
    limits (-45.0 45.0)
           (-45.0 45.0)
  end
  begin
     id 24 
     name rclavicle
     direction -0.90847 0.38596 0.160368   
     length 3.12973  
     axis 0 0 0   XYZ 
    dof ry rz
    limits (-10.0 20.0)
           (-20.0 0.0)
  end
  begin
     id 25 
     name rhumerus
     direction -1 -4.48974e-011 4.47268e-028  
     length 4.72284   
     axis 180 30 90   XYZ
    dof rx ry rz
    limits (-90.0 60.0)
           (-90.0 90.0)
           (-90.0 90.0)
  end
  begin
     id 26 
     name rradius
     direction -1 -4.48969e-011 3.43203e-027   
     length 3.23459   
     axis 180 30 90   XYZ
    dof rx
    limits (-10.0 170.0)
  end
  begin
     id 27 
     name rwrist
     direction -1 -4.48969e-011 9.12911e-027   
     length 1.6173   
     axis -6.84618e-015 -90 -90   XYZ
    dof ry
    limits (-180.0 0.0)
  end
  begin
     id 28
     name rhand
     direction -1 -4.49194e-011 1.83006e-026   
     length 0.307416   
     axis -1.16502e-014 -90 -90   XYZ
    dof rx rz
    limits (-90.0 90.0)
           (-45.0 45.0)
  end
  begin
     id 29
     name rfingers
     direction -1 -4.48423e-011 3.63103e-026   
     length 0.247847   
     axis -2.33008e-014 -90 -90   XYZ
    dof rx
    limits (0.0 90.0)
  end
  begin
     id 30
     name rthumb
     direction -0.707107 -6.34802e-011 0.707107   
     length 0.35586   
     axis -90 -45 -5.69224e-014   XYZ
    dof rx rz
    limits (-45.0 45.0)
           (-45.0 45.0)
  end
:hierarchy
  begin
    root lhipjoint rhipjoint lowerback
    lhipjoint lfemur
    lfemur ltibia
    ltibia lfoot
    lfoot ltoes
    rhipjoint rfemur
    rfemur rtibia
    rtibia rfoot
    rfoot rtoes
    lowerback upperback
    upperback thorax
    thorax lowerneck lclavicle rclavicle
    lowerneck upperneck
    upperneck head
    lclavicle lhumerus
    lhumerus lradius
    lradius lwrist
    lwrist lhand lthumb
    lhand lfingers
    rclavicle rhumerus
    rhumerus rradius
    rradius rwrist
    rwrist rhand rthumb
    rhand rfingers
  end

#!OML:ASF H:\Terrain\Patient Classification 1\Animal1\Tuesday\Animal1.ASF
:FULLY-SPECIFIED
:DEGREES
353
root 18.9753 16.3682 -29.1153 21.1267 -50.658 2.92968
lowerback 27.2463 2.81068 0.961805
upperback 7.24124 3.09419 -4.24196
thorax -6.65553 1.34817 -6.24272
lowerneck -2.86845 7.29021 -4.09347
upperneck -25.2936 9.19006 -3.65985
head -7.34094 5.04091 -0.999304
rclavicle 3.97569e-014 -7.23576e-014
rhumerus -17.9933 -9.97585 -66.4982
rradius 71.7448
rwrist -2.66837
rhand -24.6933 27.0051
rfingers 7.12502
rthumb 1.80775 -2.96699
lclavicle 3.97569e-014 -7.23576e-014
lhumerus -40.4559 25.978 51.2631
lradius 83.209
lwrist -28.0783
lhand 5.0175 63.9796
lfingers 7.12502
lthumb 30.3867 -91.4962
rfemur -58.17 4.39098 26.1009
rtibia 69.5137
rfoot 13.9907 -6.21168
rtoes -15.006
lfemur -54.9916 -11.1547 -21.6406
ltibia 50.4291
lfoot 11.9652 -23.7511
ltoes -45.1923
354
root 18.8975 16.376 -29.0749 21.2165 -50.6985 2.91492
lowerback 27.4482 2.89071 0.801193
upperback 7.19484 3.16668 -4.04785
thorax -6.82075 1.37754 -5.9699
lowerneck -3.09102 7.21982 -4.15531
upperneck -25.0945 9.04489 -3.90732
head -7.22717 4.99308 -1.04457
rclavicle -4.19436e-014 1.14898e-013
rhumerus -17.8635 -10.0658 -66.1202
rradius 71.6505
rwrist -2.6049
rhand -24.9761 27.3064
rfingers 7.12502
rthumb 1.53463 -2.66784
lclavicle -4.19436e-014 1.14898e-013
lhumerus -40.3188 26.0463 51.5787
lradius 83.1057
lwrist -28.0112
lhand 5.14258 63.7364
lfingers 7.12502
lthumb 30.506 -91.2309
rfemur -58.8455 4.83012 25.354
rtibia 67.9709
rfoot 14.2815 -6.24132
rtoes -18.6824
lfemur -54.9742 -11.4931 -21.2438
ltibia 50.7513
lfoot 19.5054 -12.6375
ltoes -21.1109
355
root 18.8171 16.4245 -29.0388 21.0191 -50.7962 3.05892
lowerback 27.5553 2.81707 0.846264
upperback 7.32957 3.06806 -4.14304
thorax -6.72342 1.33192 -6.07229
lowerneck -3.24083 7.188 -4.3027
upperneck -25.1463 9.02237 -3.79434
head -7.23326 4.98555 -0.979062
rclavicle 1.02175e-013 -4.67144e-014
rhumerus -17.493 -10.2881 -66.2439
rradius 71.5365
rwrist -2.31254
rhand -25.2338 27.344
rfingers 7.12502
rthumb 1.28577 -2.63192
lclavicle 1.02175e-013 -4.67144e-014
lhumerus -40.0502 26.2966 51.5924
lradius 83.0133
lwrist -28.0336
lhand 4.74456 63.7188
lfingers 7.12502
lthumb 30.1263 -91.2831
rfemur -59.1101 5.5111 24.2359
rtibia 65.9868
rfoot 14.4883 -6.56101
rtoes -20.2424
lfemur -54.6212 -11.7576 -21.0068
ltibia 50.7778
lfoot 20.0583 -5.48097
ltoes -0.732803
356
root 18.7356 16.3893 -28.9958 20.9569 -50.9578 3.18026
lowerback 27.5419 3.00137 0.462759
upperback 7.40134 3.21589 -3.94205
thorax -6.65753 1.40522 -5.66591
lowerneck -3.69517 7.11237 -4.63126
upperneck -24.8648 8.94329 -3.72354
head -7.08472 4.96545 -0.872226
rclavicle -6.99722e-014 4.96962e-014
rhumerus -17.4056 -10.4993 -65.8345
rradius 71.6821
rwrist -2.16537
rhand -25.2065 27.1103
rfingers 7.12502
rthumb 1.31217 -2.86536
lclavicle -6.99722e-014 4.96962e-014
lhumerus -39.9504 26.508 52.1418
lradius 83.1429
lwrist -28.2494
lhand 4.0557 64.1191
lfingers 7.12502
lthumb 29.4689 -91.8012
rfemur -59.7932 6.47054 22.9441
rtibia 63.9921
rfoot 14.6976 -7.05589
rtoes -18.9552
lfemur -54.2254 -11.5604 -21.3762
ltibia 50.8167
lfoot 21.0397 -5.39894
ltoes 4.79735
357
root 18.6544 16.4212 -28.9498 21.1013 -51.1068 3.11511
lowerback 27.3759 2.95049 0.625586
upperback 7.44304 3.18689 -4.05972
thorax -6.51513 1.39511 -5.86971
lowerneck -3.65029 7.14221 -4.49899
upperneck -24.9597 8.9801 -3.7525
head -7.11505 4.97486 -0.908917
rclavicle 4.51241e-014 3.77691e-014
rhumerus -17.3649 -10.7053 -65.9605
rradius 71.7654
rwrist -2.10799
rhand -25.0082 26.996
rfingers 7.12502
rthumb 1.50367 -2.97841
lclavicle 4.51241e-014 3.77691e-014
lhumerus -39.8926 26.532 52.0145
lradius 83.2386
lwrist -28.5988
lhand 4.40725 63.9468
lfingers 7.12502
lthumb 29.8044 -91.5693
rfemur -60.1288 7.34685 21.754
rtibia 61.5003
rfoot 14.326 -7.35796
rtoes -17.0783
lfemur -53.6512 -11.5116 -21.5474
ltibia 50.5593
lfoot 20.9391 -4.98315
ltoes 7.51684
358
root 18.57 16.4568 -28.9078 21.4989 -51.1444 2.62297
lowerback 27.4373 2.92633 0.892822
upperback 7.41244 3.23669 -3.94797
thorax -6.56522 1.41548 -5.92016
lowerneck -3.40353 7.16046 -4.52854
upperneck -25.1963 8.94957 -3.93245
head -7.22889 4.98004 -0.978337
rclavicle -7.25564e-014 7.89175e-014
rhumerus -17.406 -10.7032 -65.7719
rradius 71.8236
rwrist -2.34996
rhand -24.2533 26.9973
rfingers 7.12502
rthumb 2.23273 -2.97072
lclavicle -7.25564e-014 7.89175e-014
lhumerus -39.9276 26.4504 51.9422
lradius 83.1113
lwrist -29.019
lhand 5.18629 63.5255
lfingers 7.12502
lthumb 30.5476 -91.0122
rfemur -60.3008 8.26538 20.8946
rtibia 58.9809
rfoot 13.8628 -7.06979
rtoes -16.6971
lfemur -53.262 -11.6478 -21.2291
ltibia 50.4388
lfoot 20.8404 -3.72617
ltoes 14.7133
